<svg width="1685" height="1956" xmlns="http://www.w3.org/2000/svg" xmlns:xlink="http://www.w3.org/1999/xlink" overflow="hidden"><defs><clipPath id="clip0"><rect x="1358" y="260" width="1685" height="1956"/></clipPath></defs><g clip-path="url(#clip0)" transform="translate(-1358 -260)"><path d="M2200.5 360.95 1444.5 800.185 1444.5 1675.81 2200.5 2115.05 2956.5 1675.81 2956.5 800.185ZM2200.5 263.5 3040.5 751.54 3040.5 1724.46 2200.5 2212.5 1360.5 1724.46 1360.5 751.539Z" stroke="#000000" stroke-width="4.58333" stroke-miterlimit="8" fill-rule="evenodd"/><path d="M2200.5 426.426 1500.5 832.871 1500.5 1643.13 2200.5 2049.57 2900.5 1643.13 2900.5 832.871ZM2200.5 361.5 2956.5 800.46 2956.5 1675.54 2200.5 2114.5 1444.5 1675.54 1444.5 800.46Z" stroke="#FFFFFF" stroke-width="4.58333" stroke-miterlimit="8" fill="#FFFFFF" fill-rule="evenodd"/><path d="M2200.5 523 1584.5 881.08 1584.5 1594.92 2200.5 1953 2816.5 1594.92 2816.5 881.08ZM2200.5 425.5 2900.5 832.409 2900.5 1643.59 2200.5 2050.5 1500.5 1643.59 1500.5 832.409Z" stroke="#000000" stroke-width="4.58333" stroke-miterlimit="8" fill-rule="evenodd"/><path d="M2200.55 523.5 2816.5 881.33 2816.5 1594.67 2200.55 1952.5 1584.6 1594.67 1584.6 881.33Z" stroke="#FFFFFF" stroke-width="4.58333" stroke-miterlimit="8" fill="#FFFFFF" fill-rule="evenodd"/><path d="M2492.3 1062.5 2496.4 1067.46C2529.29 1116.14 2548.5 1174.83 2548.5 1238 2548.5 1301.17 2529.29 1359.86 2496.4 1408.54L2492.3 1413.5 2356.5 1308.96 2366.75 1290.09C2373.52 1274.08 2377.26 1256.48 2377.26 1238 2377.26 1219.52 2373.52 1201.92 2366.75 1185.91L2356.5 1167.04 2492.3 1062.5Z" stroke="#000000" stroke-width="4.58333" stroke-miterlimit="8" fill-rule="evenodd"/><path d="M2200.6 933.5C2284.85 933.5 2361.12 967.583 2416.34 1022.69L2449.5 1062.8 2313.69 1167.16 2311.6 1163.31C2287.54 1127.77 2246.8 1104.41 2200.6 1104.41 2126.67 1104.41 2066.74 1164.22 2066.74 1238 2066.74 1311.78 2126.67 1371.59 2200.6 1371.59 2246.8 1371.59 2287.54 1348.23 2311.6 1312.69L2313.69 1308.84 2449.5 1413.2 2416.34 1453.31C2361.12 1508.42 2284.85 1542.5 2200.6 1542.5 2032.1 1542.5 1895.5 1406.17 1895.5 1238 1895.5 1069.83 2032.1 933.5 2200.6 933.5Z" stroke="#000000" stroke-width="4.58333" stroke-miterlimit="8" fill-rule="evenodd"/><path d="M1895.5 1238.5 2064.5 1238.5 2064.5 1895.5 1895.5 1794.03Z" stroke="#000000" stroke-width="4.58333" stroke-miterlimit="8" fill-rule="evenodd"/></g></svg>